<svg xmlns="http://www.w3.org/2000/svg" viewBox="-12.0 -173.9 1124.4 283.3" role="img" aria-label="RENEGADE OPS"><path d="M94.40 0L63.20 0L48.20-54L48-54L48-80.40L48.20-80.40Q54.50-80.40 57.70-83.30Q60.90-86.20 61.20-91.40L61.20-91.40Q61.50-96.30 61.60-101.65Q61.70-107 61.60-112.35Q61.50-117.70 61.20-122.60L61.20-122.60Q60.90-127.90 57.70-130.75Q54.50-133.60 48.20-133.60L48.20-133.60L48-133.60L48-160L48.20-160Q70.60-160 80.55-150.95Q90.50-141.90 91.20-121L91.20-121Q91.40-115.40 91.45-111.20Q91.50-107 91.45-102.80Q91.40-98.60 91.20-93L91.20-93Q90.30-68 75.60-59.60L75.60-59.60L94.40 0ZM38 0L8 0L8-160L38-160L38 0ZM128 0L98 0L98-160L128-160L128 0ZM167.20 0L137.80 0L137.80-26.40L167.20-26.40L167.20 0ZM165.20-68.20L137.80-68.20L137.80-94.60L165.20-94.60L165.20-68.20ZM167.20-133.60L137.80-133.60L137.80-160L167.20-160L167.20-133.60ZM264.20 0L218.60 0L206.60-52.40L198.40-133.80L171.60-133.80L171.60-160L215.00-160L227.00-109L238.00-26.40L264.20-26.40L264.20 0ZM200.60 0L171.60 0L171.60-123.80L190.20-123.80L198.00-51.60L200.60 0ZM264.20-36.40L245.80-36.40L236.60-109L235.20-160L264.20-160L264.20-36.40ZM302.20 0L272.20 0L272.20-160L302.20-160L302.20 0ZM341.40 0L312.00 0L312.00-26.40L341.40-26.40L341.40 0ZM339.40-68.20L312.00-68.20L312.00-94.60L339.40-94.60L339.40-68.20ZM341.40-133.60L312.00-133.60L312.00-160L341.40-160L341.40-133.60ZM382.60-23L382.60 1.90Q362.80 0.90 354.45-8.45Q346.10-17.80 345.40-38.20L345.40-38.20Q345.10-46.60 344.95-57.35Q344.80-68.10 344.80-79.50Q344.80-90.90 344.95-101.50Q345.10-112.10 345.40-120.20L345.40-120.20Q346.20-141.70 354.70-151.30Q363.20-160.90 382.60-161.90L382.60-161.90L382.60-137Q379.20-136 377.40-133.65Q375.60-131.30 375.40-127.60L375.40-127.60Q374.80-117.10 374.50-104.95Q374.20-92.80 374.20-80.10Q374.20-67.40 374.50-55.25Q374.80-43.10 375.40-32.60L375.40-32.60Q375.60-28.90 377.40-26.45Q379.20-24 382.60-23L382.60-23ZM392.60 1.90L392.60 1.90L392.60-23Q396.10-24 398.15-26.45Q400.20-28.90 400.60-32.60L400.60-32.60Q400.80-34.90 400.85-38.65Q400.90-42.40 400.85-46.15Q400.80-49.90 400.60-52.20L400.60-52.20L389.60-52.20L389.60-78.20L429.80-78.20Q430.30-69.10 430.20-58.25Q430.10-47.40 429.60-38.20L429.60-38.20Q428.60-17.90 420.00-8.50Q411.40 0.90 392.60 1.90ZM429.20-100L399.20-100Q399.50-105.60 399.50-113.85Q399.50-122.10 399.20-127.60L399.20-127.60Q399.00-131.10 397.30-133.45Q395.60-135.80 392.60-136.80L392.60-136.80L392.60-161.90Q410.90-160.90 419.40-151.50Q427.90-142.10 429.20-122L429.20-122Q429.50-117.40 429.50-111.05Q429.50-104.70 429.20-100L429.20-100ZM461.20 0L430.40 0L452.60-160L502.20-160L505.60-133.60L474.80-133.60L472.60-91.20L468.40-59.80L480.60-59.80L473.60-33.40L466.60-33.40L461.20 0ZM524.00 0L493.20 0L482.40-91.40L481.40-123.60L506.20-123.60L524.00 0ZM556.00 0L526.00 0L526.00-160L556.00-160L556.00 0ZM566.60 0L566.00 0L566.00-26.40L566.60-26.40Q572.90-26.40 576.20-29.30Q579.50-32.20 579.60-37.60L579.60-37.60Q579.90-48.30 580.05-58.90Q580.20-69.50 580.20-80.10Q580.20-90.70 580.05-101.35Q579.90-112 579.60-122.60L579.60-122.60Q579.50-127.90 576.20-130.75Q572.90-133.60 566.60-133.60L566.60-133.60L566.00-133.60L566.00-160L566.60-160Q589.10-160 599.15-150.45Q609.20-140.90 609.60-119L609.60-119Q609.90-105.10 610.00-92.60Q610.10-80.10 610.00-67.60Q609.90-55.10 609.60-41.20L609.60-41.20Q609.20-19.20 599.15-9.60Q589.10 0 566.60 0L566.60 0ZM647.00 0L617.00 0L617.00-160L647.00-160L647.00 0ZM686.20 0L656.80 0L656.80-26.40L686.20-26.40L686.20 0ZM684.20-68.20L656.80-68.20L656.80-94.60L684.20-94.60L684.20-68.20ZM686.20-133.60L656.80-133.60L656.80-160L686.20-160L686.20-133.60ZM876.40-23L876.40 1.90Q857.00 1 848.25-8.40Q839.50-17.80 839.00-38.20L839.00-38.20Q838.80-48 838.70-58.60Q838.60-69.20 838.60-80.10Q838.60-91 838.70-101.60Q838.80-112.20 839.00-122L839.00-122Q839.50-142.30 848.25-151.65Q857.00-161 876.40-161.90L876.40-161.90L876.40-137Q873.00-136 871.20-133.60Q869.40-131.20 869.20-127.60L869.20-127.60Q868.80-117.40 868.55-105.20Q868.30-93 868.30-80.10Q868.30-67.20 868.55-55Q868.80-42.80 869.20-32.60L869.20-32.60Q869.40-28.90 871.20-26.45Q873.00-24 876.40-23L876.40-23ZM886.40 1.90L886.40 1.90L886.40-23Q889.80-24 891.55-26.45Q893.30-28.90 893.40-32.60L893.40-32.60Q893.90-42.80 894.10-55Q894.30-67.20 894.30-80.10Q894.30-93 894.10-105.20Q893.90-117.40 893.40-127.60L893.40-127.60Q893.30-131.20 891.50-133.60Q889.70-136 886.40-137L886.40-137L886.40-161.90Q905.60-160.90 914.05-151.50Q922.50-142.10 923.20-122L923.20-122Q923.60-112 923.80-101.40Q924.00-90.80 924.00-79.95Q924.00-69.10 923.80-58.55Q923.60-48 923.20-38.20L923.20-38.20Q922.50-18 914.05-8.60Q905.60 0.80 886.40 1.90ZM960.90 0L930.90 0L930.90-160L960.90-160L960.90 0ZM971.10-50.80L970.90-50.80L970.90-77.20L971.10-77.20Q977.40-77.20 980.60-80.10Q983.80-83 984.10-88.20L984.10-88.20Q984.40-93.10 984.50-99.25Q984.60-105.40 984.50-111.55Q984.40-117.70 984.10-122.60L984.10-122.60Q983.80-127.90 980.60-130.75Q977.40-133.60 971.10-133.60L971.10-133.60L970.90-133.60L970.90-160L971.10-160Q993.50-160 1003.45-150.95Q1013.40-141.90 1014.10-121L1014.10-121Q1014.40-112.60 1014.40-105.40Q1014.40-98.20 1014.10-89.80L1014.10-89.80Q1013.40-69 1003.45-59.90Q993.50-50.80 971.10-50.80L971.10-50.80ZM1053.10-23L1053.10 1.90Q1033.80 0.90 1025.55-8.50Q1017.30-17.90 1016.50-38.20L1016.50-38.20Q1016.40-41.40 1016.40-45.25Q1016.40-49.10 1016.60-52.95Q1016.80-56.80 1017.30-60L1017.30-60L1045.50-60Q1045.10-52.70 1045.00-45.60Q1044.90-38.50 1045.50-32.60L1045.50-32.60Q1045.90-28.90 1047.75-26.45Q1049.60-24 1053.10-23L1053.10-23ZM1063.10 1.90L1063.10 1.90L1063.10-23Q1066.30-24.10 1068.00-26.50Q1069.70-28.90 1070.10-32.60L1070.10-32.60Q1070.50-36 1070.65-39.35Q1070.80-42.70 1070.65-46.05Q1070.50-49.40 1070.10-52.80L1070.10-52.80Q1069.70-57 1067.50-60.40Q1065.30-63.80 1060.50-65L1060.50-65L1044.10-69.20Q1033.70-71.90 1027.60-76.95Q1021.50-82 1018.75-89.50Q1016.00-97 1015.70-107L1015.70-107Q1015.60-111.40 1015.60-114.85Q1015.60-118.30 1015.70-122L1015.70-122Q1016.50-142.30 1024.90-151.60Q1033.30-160.90 1053.10-161.90L1053.10-161.90L1053.10-137Q1049.70-136 1047.95-133.65Q1046.20-131.30 1045.70-127.60L1045.70-127.60Q1045.10-122.50 1045.10-117.30Q1045.10-112.10 1045.70-107L1045.70-107Q1046.20-103 1048.50-99.70Q1050.80-96.40 1055.90-95.20L1055.90-95.20L1070.10-91.80Q1081.30-89.10 1087.75-83.85Q1094.20-78.60 1097.05-70.85Q1099.90-63.10 1100.30-52.80L1100.30-52.80Q1100.40-50.50 1100.40-48Q1100.40-45.50 1100.30-43Q1100.20-40.50 1100.10-38.20L1100.10-38.20Q1099.30-17.90 1090.90-8.50Q1082.50 0.90 1063.10 1.90ZM1099.10-100L1070.30-100Q1070.60-106.90 1070.70-113.80Q1070.80-120.70 1070.50-127.60L1070.50-127.60Q1070.40-131.20 1068.45-133.55Q1066.50-135.90 1063.10-136.90L1063.10-136.90L1063.10-161.90Q1081.70-160.90 1090.20-151.55Q1098.70-142.20 1099.50-122L1099.50-122Q1099.70-117.70 1099.55-111.50Q1099.40-105.30 1099.10-100L1099.10-100ZM10.52 78.19L4.23 97.41L2.70 96.93L9.01 77.71L10.52 78.19ZM28.06 78.19L21.77 97.41L20.24 96.93L26.55 77.71L28.06 78.19ZM59.23 95.42L59.23 95.42Q56.74 95.42 55.33 93.83Q53.91 92.25 53.91 89.24L53.91 89.24L53.91 85.88Q53.91 82.96 55.33 81.33Q56.74 79.70 59.23 79.70L59.23 79.70Q61.73 79.70 63.14 81.33Q64.54 82.96 64.54 85.88L64.54 85.88L64.54 89.24Q64.54 92.25 63.14 93.83Q61.73 95.42 59.23 95.42ZM59.23 93.74L59.23 93.74Q60.98 93.74 61.85 92.53Q62.73 91.32 62.73 89.12L62.73 89.12L62.73 86.00Q62.73 83.93 61.85 82.66Q60.98 81.38 59.23 81.38L59.23 81.38Q57.48 81.38 56.60 82.66Q55.73 83.93 55.73 86.00L55.73 86.00L55.73 89.12Q55.73 91.32 56.60 92.53Q57.48 93.74 59.23 93.74ZM73.81 95.12L71.99 95.12L71.99 80L77.39 80Q78.95 80 79.97 80.57Q81 81.14 81.51 82.07Q82.02 83.00 82.02 84.10L82.02 84.10L82.02 84.75Q82.02 85.85 81.50 86.80Q80.98 87.75 79.95 88.33Q78.93 88.90 77.39 88.90L77.39 88.90L73.81 88.90L73.81 95.12ZM73.81 81.68L73.81 87.21L77.18 87.21Q80.20 87.21 80.20 84.62L80.20 84.62L80.20 84.23Q80.20 83.09 79.46 82.39Q78.71 81.68 77.18 81.68L77.18 81.68L73.81 81.68ZM99.01 95.12L89.73 95.12L89.73 80L98.88 80L98.88 81.68L91.54 81.68L91.54 86.70L98.76 86.70L98.76 88.38L91.54 88.38L91.54 93.44L99.01 93.44L99.01 95.12ZM108.89 95.12L107.07 95.12L107.07 80L112.47 80Q114.03 80 115.05 80.57Q116.08 81.14 116.59 82.07Q117.09 83.00 117.09 84.10L117.09 84.10L117.09 84.75Q117.09 85.59 116.63 86.44Q116.16 87.28 115.19 87.73L115.19 87.73L115.19 87.99Q115.84 88.08 116.21 88.50Q116.58 88.92 116.58 89.68L116.58 89.68L116.58 95.12L114.76 95.12L114.76 90.07Q114.76 89.50 114.50 89.20Q114.24 88.90 113.59 88.90L113.59 88.90L108.89 88.90L108.89 95.12ZM108.89 81.68L108.89 87.21L112.26 87.21Q115.28 87.21 115.28 84.62L115.28 84.62L115.28 84.23Q115.28 83.09 114.53 82.39Q113.79 81.68 112.26 81.68L112.26 81.68L108.89 81.68ZM125.04 95.12L123.10 95.12L127.68 80L131.09 80L135.67 95.12L133.73 95.12L132.62 91.36L126.14 91.36L125.04 95.12ZM129.25 80.78L126.64 89.68L132.13 89.68L129.51 80.78L129.25 80.78ZM147.83 95.12L146.02 95.12L146.02 81.68L141.61 81.68L141.61 80L152.24 80L152.24 81.68L147.83 81.68L147.83 95.12ZM169.26 95.12L159.67 95.12L159.67 93.44L163.56 93.44L163.56 81.68L159.67 81.68L159.67 80L169.26 80L169.26 81.68L165.37 81.68L165.37 93.44L169.26 93.44L169.26 95.12ZM182.00 95.42L182.00 95.42Q179.52 95.42 178.10 93.83Q176.69 92.25 176.69 89.24L176.69 89.24L176.69 85.88Q176.69 82.96 178.10 81.33Q179.52 79.70 182.00 79.70L182.00 79.70Q184.51 79.70 185.91 81.33Q187.32 82.96 187.32 85.88L187.32 85.88L187.32 89.24Q187.32 92.25 185.91 93.83Q184.51 95.42 182.00 95.42ZM182.00 93.74L182.00 93.74Q183.75 93.74 184.63 92.53Q185.50 91.32 185.50 89.12L185.50 89.12L185.50 86.00Q185.50 83.93 184.63 82.66Q183.75 81.38 182.00 81.38L182.00 81.38Q180.25 81.38 179.38 82.66Q178.50 83.93 178.50 86.00L178.50 86.00L178.50 89.12Q178.50 91.32 179.38 92.53Q180.25 93.74 182.00 93.74ZM196.32 95.12L194.51 95.12L194.51 80L198.14 80L202.50 94.34L202.76 94.34L202.76 80L204.57 80L204.57 95.12L200.94 95.12L196.58 80.78L196.32 80.78L196.32 95.12ZM217.38 95.42L217.38 95.42Q215.44 95.42 214.12 94.70Q212.80 93.98 212.12 92.72Q211.44 91.47 211.44 89.89L211.44 89.89L211.44 89.24L213.26 89.24L213.26 89.76Q213.26 91.73 214.36 92.73Q215.46 93.74 217.38 93.74L217.38 93.74Q219.07 93.74 219.92 92.98Q220.77 92.23 220.77 91.02L220.77 91.02L220.77 90.89Q220.77 89.70 219.90 89.07Q219.02 88.45 217.06 88.16L217.06 88.16Q214.79 87.84 213.44 86.88Q212.09 85.92 212.09 83.97L212.09 83.97L212.09 83.72Q212.09 82.53 212.73 81.63Q213.36 80.73 214.49 80.22Q215.61 79.70 217.08 79.70L217.08 79.70Q218.79 79.70 219.99 80.32Q221.18 80.95 221.82 81.98Q222.46 83.00 222.46 84.23L222.46 84.23L222.46 85.14L220.64 85.14L220.64 84.36Q220.64 83.37 220.15 82.71Q219.65 82.05 218.83 81.72Q218.01 81.38 217.06 81.38L217.06 81.38Q216.24 81.38 215.51 81.66Q214.79 81.94 214.35 82.47Q213.90 83.00 213.90 83.78L213.90 83.78L213.90 83.91Q213.90 85.16 214.92 85.73Q215.94 86.31 217.97 86.61L217.97 86.61Q220.34 86.96 221.46 87.99Q222.59 89.03 222.59 90.76L222.59 90.76L222.59 91.02Q222.59 92.98 221.26 94.20Q219.93 95.42 217.38 95.42ZM252.24 95.42L252.24 95.42Q249.76 95.42 248.35 93.83Q246.93 92.25 246.93 89.24L246.93 89.24L246.93 85.88Q246.93 82.96 248.35 81.33Q249.76 79.70 252.24 79.70L252.24 79.70Q253.97 79.70 255.16 80.43Q256.35 81.17 256.95 82.41Q257.56 83.65 257.56 85.18L257.56 85.18L257.56 85.44L255.74 85.44L255.74 85.18Q255.72 84.19 255.37 83.33Q255.01 82.46 254.24 81.92Q253.48 81.38 252.24 81.38L252.24 81.38Q250.50 81.38 249.62 82.66Q248.75 83.93 248.75 86.00L248.75 86.00L248.75 89.12Q248.75 91.32 249.62 92.53Q250.50 93.74 252.24 93.74L252.24 93.74Q253.48 93.74 254.25 93.20Q255.03 92.66 255.39 91.79Q255.74 90.93 255.74 89.94L255.74 89.94L255.74 89.68L257.56 89.68L257.56 89.94Q257.56 91.47 256.95 92.71Q256.35 93.95 255.16 94.69Q253.97 95.42 252.24 95.42ZM269.70 95.42L269.70 95.42Q267.21 95.42 265.80 93.83Q264.38 92.25 264.38 89.24L264.38 89.24L264.38 85.88Q264.38 82.96 265.80 81.33Q267.21 79.70 269.70 79.70L269.70 79.70Q272.20 79.70 273.61 81.33Q275.01 82.96 275.01 85.88L275.01 85.88L275.01 89.24Q275.01 92.25 273.61 93.83Q272.20 95.42 269.70 95.42ZM269.70 93.74L269.70 93.74Q271.45 93.74 272.32 92.53Q273.20 91.32 273.20 89.12L273.20 89.12L273.20 86.00Q273.20 83.93 272.32 82.66Q271.45 81.38 269.70 81.38L269.70 81.38Q267.95 81.38 267.07 82.66Q266.20 83.93 266.20 86.00L266.20 86.00L266.20 89.12Q266.20 91.32 267.07 92.53Q267.95 93.74 269.70 93.74ZM284.02 95.12L282.20 95.12L282.20 80L285.83 80L290.20 94.34L290.46 94.34L290.46 80L292.27 80L292.27 95.12L288.64 95.12L284.28 80.78L284.02 80.78L284.02 95.12ZM305.08 95.42L305.08 95.42Q303.13 95.42 301.82 94.70Q300.50 93.98 299.82 92.72Q299.14 91.47 299.14 89.89L299.14 89.89L299.14 89.24L300.95 89.24L300.95 89.76Q300.95 91.73 302.05 92.73Q303.16 93.74 305.08 93.74L305.08 93.74Q306.76 93.74 307.62 92.98Q308.47 92.23 308.47 91.02L308.47 91.02L308.47 90.89Q308.47 89.70 307.59 89.07Q306.72 88.45 304.75 88.16L304.75 88.16Q302.49 87.84 301.14 86.88Q299.79 85.92 299.79 83.97L299.79 83.97L299.79 83.72Q299.79 82.53 300.42 81.63Q301.06 80.73 302.18 80.22Q303.31 79.70 304.78 79.70L304.78 79.70Q306.48 79.70 307.68 80.32Q308.88 80.95 309.52 81.98Q310.15 83.00 310.15 84.23L310.15 84.23L310.15 85.14L308.34 85.14L308.34 84.36Q308.34 83.37 307.84 82.71Q307.35 82.05 306.53 81.72Q305.70 81.38 304.75 81.38L304.75 81.38Q303.93 81.38 303.21 81.66Q302.49 81.94 302.04 82.47Q301.60 83.00 301.60 83.78L301.60 83.78L301.60 83.91Q301.60 85.16 302.62 85.73Q303.63 86.31 305.66 86.61L305.66 86.61Q308.04 86.96 309.16 87.99Q310.28 89.03 310.28 90.76L310.28 90.76L310.28 91.02Q310.28 92.98 308.96 94.20Q307.63 95.42 305.08 95.42ZM322.32 95.42L322.32 95.42Q319.92 95.42 318.52 94.03Q317.13 92.64 317.13 90.02L317.13 90.02L317.13 80L318.95 80L318.95 90.02Q318.95 91.84 319.81 92.79Q320.67 93.74 322.32 93.74L322.32 93.74Q323.98 93.74 324.83 92.79Q325.68 91.84 325.68 90.02L325.68 90.02L325.68 80L327.50 80L327.50 90.02Q327.50 92.64 326.11 94.03Q324.71 95.42 322.32 95.42ZM344.84 95.12L335.12 95.12L335.12 80L336.94 80L336.94 93.44L344.84 93.44L344.84 95.12ZM358.30 95.12L356.49 95.12L356.49 81.68L352.08 81.68L352.08 80L362.71 80L362.71 81.68L358.30 81.68L358.30 95.12ZM379.73 95.12L370.14 95.12L370.14 93.44L374.03 93.44L374.03 81.68L370.14 81.68L370.14 80L379.73 80L379.73 81.68L375.84 81.68L375.84 93.44L379.73 93.44L379.73 95.12ZM389.25 95.12L387.44 95.12L387.44 80L391.07 80L395.43 94.34L395.69 94.34L395.69 80L397.50 80L397.50 95.12L393.88 95.12L389.51 80.78L389.25 80.78L389.25 95.12ZM409.90 95.42L409.90 95.42Q407.48 95.42 406.08 93.83Q404.68 92.25 404.68 89.24L404.68 89.24L404.68 85.88Q404.68 82.96 406.09 81.33Q407.51 79.70 409.99 79.70L409.99 79.70Q411.72 79.70 412.91 80.43Q414.09 81.17 414.70 82.41Q415.30 83.65 415.30 85.18L415.30 85.18L415.30 85.44L413.49 85.44L413.49 85.18Q413.49 84.19 413.13 83.33Q412.78 82.46 412.00 81.92Q411.22 81.38 409.99 81.38L409.99 81.38Q408.24 81.38 407.37 82.66Q406.49 83.93 406.49 86.00L406.49 86.00L406.49 89.12Q406.49 91.32 407.38 92.53Q408.26 93.74 410.03 93.74L410.03 93.74Q411.63 93.74 412.56 92.69Q413.49 91.64 413.49 89.81L413.49 89.81L413.49 89.55L408.56 89.55L408.56 87.86L415.30 87.86L415.30 95.12L413.62 95.12L413.62 93.31L413.36 93.31Q413.01 94.23 412.07 94.83Q411.13 95.42 409.90 95.42Z" fill="#0A0A0A"></path></svg>