<svg xmlns="http://www.w3.org/2000/svg" viewBox="0 0 280 280" role="img" aria-label="R/O"><path d="M111.01 188.99L91.91 188.99L82.72 155.92L82.60 155.92L82.60 139.76L82.72 139.76Q86.58 139.76 88.54 137.98Q90.50 136.20 90.68 133.02L90.68 133.02Q90.86 130.02 90.93 126.74Q90.99 123.46 90.93 120.19Q90.86 116.91 90.68 113.91L90.68 113.91Q90.50 110.66 88.54 108.92Q86.58 107.17 82.72 107.17L82.72 107.17L82.60 107.17L82.60 91.01L82.72 91.01Q96.44 91.01 102.53 96.55Q108.63 102.09 109.05 114.89L109.05 114.89Q109.18 118.32 109.21 120.89Q109.24 123.46 109.21 126.04Q109.18 128.61 109.05 132.04L109.05 132.04Q108.50 147.35 99.50 152.49L99.50 152.49L111.01 188.99ZM76.47 188.99L58.10 188.99L58.10 91.01L76.47 91.01L76.47 188.99ZM162.42 91.61L129.46 192.36L116.78 188.39L149.85 87.64L162.42 91.61ZM193.42 174.91L193.42 190.16Q181.54 189.61 176.18 183.85Q170.82 178.09 170.52 165.60L170.52 165.60Q170.40 159.60 170.33 153.11Q170.27 146.61 170.27 139.94Q170.27 133.26 170.33 126.77Q170.40 120.28 170.52 114.28L170.52 114.28Q170.82 101.85 176.18 96.12Q181.54 90.39 193.42 89.84L193.42 89.84L193.42 105.09Q191.34 105.70 190.24 107.17Q189.14 108.64 189.01 110.85L189.01 110.85Q188.77 117.10 188.61 124.57Q188.46 132.04 188.46 139.94Q188.46 147.84 188.61 155.31Q188.77 162.78 189.01 169.03L189.01 169.03Q189.14 171.30 190.24 172.80Q191.34 174.30 193.42 174.91L193.42 174.91ZM199.55 190.16L199.55 190.16L199.55 174.91Q201.63 174.30 202.70 172.80Q203.77 171.30 203.83 169.03L203.83 169.03Q204.14 162.78 204.26 155.31Q204.38 147.84 204.38 139.94Q204.38 132.04 204.26 124.57Q204.14 117.10 203.83 110.85L203.83 110.85Q203.77 108.64 202.67 107.17Q201.57 105.70 199.55 105.09L199.55 105.09L199.55 89.84Q211.31 90.45 216.48 96.21Q221.66 101.97 222.08 114.28L222.08 114.28Q222.33 120.40 222.45 126.89Q222.57 133.39 222.57 140.03Q222.57 146.68 222.45 153.14Q222.33 159.60 222.08 165.60L222.08 165.60Q221.66 177.97 216.48 183.73Q211.31 189.48 199.55 190.16Z" fill="#0A0A0A"></path></svg>